<?xml version="1.0" encoding="UTF-8" standalone="no"?>
<!-- ####################################################################
Icon-Name: 			Cog
Iconpack:			JamIcons
Iconpack-Homepage: 	https://jam-icons.com/
Iconpack-License:	MIT (https://github.com/michaelampr/jam/blob/master/LICENSE)
#####################################################################-->
<svg xmlns="http://www.w3.org/2000/svg" viewBox="0 0 48 48">
    <path d="M275 172.9625A26.325 26.325 0 0 1 261.575 150C261.575 140.1375 266.9875 131.55 275 127.0375L266.0375 96.9625A26.3125 26.3125 0 0 1 238.3125000000001 58.7375L212.5375 38.7125A26.3 26.3 0 0 1 170.4125 25L129.2875 25.1A26.3 26.3 0 0 1 87.2625 38.775L61.5125 58.9625A26.3125 26.3125 0 0 1 33.9375 97L25 127.1875A26.325 26.325 0 0 1 38.1375 150C38.1375 159.75 32.875 168.25 25 172.8125L33.9375 203A26.3125 26.3125 0 0 1 61.525 241.0375L87.25 261.225A26.3 26.3 0 0 1 129.275 274.9L170.425 275A26.3 26.3 0 0 1 212.55 261.2875L238.3 241.25A26.3125 26.3125 0 0 1 266.025 203.025L275 172.975zM210.2875 229C210.2875 229.7875 210.3125 230.5625 210.35 231.35L209.35 232.125A51.2875 51.2875 0 0 0 155.5 249.975L144.2 249.95A51.25 51.25 0 0 0 90.575 232.075L89.3875 231.125A51.35 51.35 0 0 0 53.4875 180A51.25 51.25 0 0 0 63.1375 150.0125C63.1375 138.9875 59.6375 128.575 53.4875 120.0125A51.35 51.35 0 0 0 89.3875 68.8875000000001L90.5875 67.9500000000001A51.3 51.3 0 0 0 144.2 50.075L155.5 50.0500000000001A51.25 51.25 0 0 0 209.3375 67.9000000000001L210.3375 68.6750000000001A51.35 51.35 0 0 0 246.25 120A51.275 51.275 0 0 0 236.5875 150C236.5875 161.025 240.1 171.45 246.25 180A51.35 51.35 0 0 0 210.3 228.9875zM150 100A50 50 0 1 0 150 200A50 50 0 0 0 150 100zM150 125A25 25 0 1 1 150 175A25 25 0 0 1 150 125z"
              viewBox="0 0 48 48"
              height="48" width="48" 
              style="fill:#808080;
                 stroke:none
                 stroke-width:0;
                 stroke-linecap:flat;
                 stroke-linejoin:miter;"
              transform="matrix(0.192,0,0,-0.192,-4.8,52.8)" />
</svg>